<svg width="50" height="68" viewBox="0 0 50 68" fill="none" xmlns="http://www.w3.org/2000/svg">
<path d="M0.181785 11.4793C3.85242 9.58591 8.16764 7.54613 12.8623 5.52823C17.557 3.51034 22.034 1.771 25.9062 0.422327L27.0864 5.27019C22.7917 6.291 18.595 7.68681 14.5445 9.4418C10.4546 11.182 6.52725 13.2816 2.80855 15.716L0.181785 11.4793ZM3.68698 17.1019C7.33189 14.648 11.2125 12.5637 15.2715 10.881C19.2256 9.12575 23.3423 7.76133 27.5619 6.80689L28.2322 9.55567C26.6177 10.1299 24.923 10.7712 23.163 11.4624L23.0984 11.4902C20.997 12.2737 18.8653 13.1895 16.6237 14.153C14.3821 15.1165 12.2299 16.0855 10.1904 17.0383L10.0711 17.0896C8.34008 17.899 6.69034 18.6951 5.15361 19.4754L3.68698 17.1019ZM27.3272 39.1811C22.5423 33.9997 18.2332 31.6716 14.4772 32.2519L14.4126 32.2797C13.4909 28.017 12.3357 23.8082 10.9526 19.6721L11.0172 19.6444C13.1196 18.6101 15.3337 17.6583 17.5937 16.6868C19.8537 15.7154 22.1204 14.7848 24.3109 13.9304L24.3755 13.9026C26.4248 17.7523 28.6839 21.4867 31.1426 25.0887L31.078 25.1165C28.1366 27.4148 26.8602 32.1437 27.3272 39.1811ZM36.8772 61.5257C35.5296 58.6436 32.4715 53.8841 25.7908 49.0275C22.6044 46.7377 19.2035 44.7622 15.636 43.1285L15.6386 42.9317C15.6764 40.0502 15.4239 37.1717 14.885 34.3407L14.9397 34.3172C18.3795 33.8618 22.8551 36.8802 27.9209 43.0948L30.2731 46.0348L29.7584 42.305C28.7796 34.3555 29.6692 29.0307 32.3626 26.839L32.4173 26.8155C34.0875 29.1549 35.9888 31.3213 38.0918 33.2808L38.1906 33.4339C36.9211 37.1467 36.0143 40.9738 35.4832 44.8615C34.3823 53.0628 35.7591 58.545 36.923 61.506L36.8772 61.5257Z" fill="black"/>
</svg>
